HIERARCHY
ROOT root     
{
	OFFSET 0.0000 0.0000 0.0000
	CHANNELS 6 Xposition Yposition Zposition Zrotation Yrotation Xrotation
	JOINT pelvis   
	{
		OFFSET 0.0000 0.0000 0.0000
		CHANNELS 3 Zrotation Yrotation Xrotation
		JOINT thorax   
		{
			OFFSET 0.0000 23.0750 -5.0000
			CHANNELS 3 Zrotation Yrotation Xrotation
			JOINT rclavicle
			{
				OFFSET 0.0000 28.0009 0.0000
				CHANNELS 3 Zrotation Yrotation Xrotation
				JOINT rhumerus 
				{
					OFFSET -18.5725 5.5939 0.0000
					CHANNELS 3 Zrotation Yrotation Xrotation
					JOINT rradius  
					{
						OFFSET -24.8459 0.0000 0.0000
						CHANNELS 3 Zrotation Yrotation Xrotation
						JOINT rhand    
						{
							OFFSET -24.5477 0.0000 0.0000
							CHANNELS 3 Zrotation Yrotation Xrotation
							End Site
							{
								OFFSET -8.1826 0.0000 0.0000
							}
						}
					}
				}
			}
			JOINT lclavicle
			{
				OFFSET 0.0000 28.0009 0.0000
				CHANNELS 3 Zrotation Yrotation Xrotation
				JOINT lhumerus 
				{
					OFFSET 18.5725 5.5939 0.0000
					CHANNELS 3 Zrotation Yrotation Xrotation
					JOINT lradius  
					{
						OFFSET 24.8459 0.0000 0.0000
						CHANNELS 3 Zrotation Yrotation Xrotation
						JOINT lhand    
						{
							OFFSET 24.5477 0.0000 0.0000
							CHANNELS 3 Zrotation Yrotation Xrotation
							End Site
							{
								OFFSET 8.1826 0.0000 0.0000
							}
						}
					}
				}
			}
			JOINT head     
			{
				OFFSET 0.0000 35.2030 0.0000
				CHANNELS 3 Zrotation Yrotation Xrotation
				End Site
				{
					OFFSET 0.0000 11.7343 0.0000
				}
			}
		}
		JOINT rfemur   
		{
			OFFSET -8.2817 0.0000 0.0000
			CHANNELS 3 Zrotation Yrotation Xrotation
			JOINT rtibia   
			{
				OFFSET 0.0000 -43.3627 0.0000
				CHANNELS 3 Zrotation Yrotation Xrotation
				JOINT rfoot    
				{
					OFFSET 0.0000 -38.2947 0.0000
					CHANNELS 3 Zrotation Yrotation Xrotation
					JOINT rtoes    
					{
						OFFSET 0.0000 0.0000 16.6054
						CHANNELS 3 Zrotation Yrotation Xrotation
						End Site
						{
							OFFSET 0.0000 0.0000 5.5351
						}
					}
				}
			}
		}
		JOINT lfemur   
		{
			OFFSET 8.2817 0.0000 0.0000
			CHANNELS 3 Zrotation Yrotation Xrotation
			JOINT ltibia   
			{
				OFFSET 0.0000 -43.3627 0.0000
				CHANNELS 3 Zrotation Yrotation Xrotation
				JOINT lfoot    
				{
					OFFSET 0.0000 -38.2947 0.0000
					CHANNELS 3 Zrotation Yrotation Xrotation
					JOINT ltoes    
					{
						OFFSET 0.0000 0.0000 16.6054
						CHANNELS 3 Zrotation Yrotation Xrotation
						End Site
						{
							OFFSET 0.0000 0.0000 5.5351
						}
					}
				}
			}
		}
	}
}
MOTION
Frames: 11
Frame Time: .0333333
-79.71 79.264 -2.6373 17.7014 87.1604 46.1573 0 -0 0 -3.98228 2.04318 -9.17888 20.3828 -7.7936 4.47181e-05 21.7025 19.815 2.53346 180 78.7311 180 0.374102 7.42199 0.0243 -22.1996 12.0184 -4.6536e-05 -33.1867 -11.2723 -14.3746 0 -63.8178 0 23.1466 4.95528 1.01538 15.0379 -3.67237 -25.4668 -9.55691 -8.23339 -26.6572 -0 -0 68.827 -3.45311e-07 -10.0627 9.00234 -1.59051 3.34435e-06 -34.5838 -5.39111 -0.268417 -26.8831 -0 -0 40.4745 -0.000185622 12.911 -23.0243 -5.12298 7.26625e-05 -27.505 
-78.085 79.615 -2.5222 7.1004 87.1848 35.5501 0 -0 0 -2.6901 1.26503 -9.2452 20.3662 -7.84798 4.82551e-05 22.7473 19.256 1.66879 180 79.5281 180 -0.305802 7.56532 -0.0202001 -22.0912 11.995 -3.59888e-05 -33.2487 -11.7753 -13.9735 -8.78366e-07 -65.9375 5.69733e-07 23.0238 4.47344 0.911489 14.4909 -2.9355 -24.9994 -9.03296 -8.09871 -29.1061 -0 -0 69.644 7.27959e-06 -9.62682 7.46536 -1.26245 9.25327e-06 -33.9397 -4.87448 0.31663 -24.8227 -0 -0 38.2758 -6.63297e-05 12.4112 -21.6099 -4.63346 -2.80772e-05 -29.9728 
-76.438 79.981 -2.3977 -2.78904 87.1857 25.6702 0 -0 0 -1.374 0.392795 -9.31703 20.3764 -7.90082 1.02179e-05 23.7403 18.7225 0.735835 -180 80.3937 -180 -1.0196 7.77485 -0.0692995 -21.9616 11.9984 4.04864e-06 -33.2279 -12.3315 -13.6037 9.01793e-07 -68.0122 -1.33666e-06 22.8215 3.95476 0.798495 13.9298 -2.17244 -24.5656 -8.41948 -8.05063 -31.4834 -0 -0 70.102 1.39333e-09 -9.28391 6.01602 -0.981495 -7.0342e-06 -33.3758 -4.31793 0.810087 -22.7943 -0 -0 36.0864 8.53062e-05 11.9121 -19.9333 -4.11381 -2.80004e-05 -32.7415 
-74.77 80.358 -2.266 -11.992 87.1906 16.4914 0 -0 0 -0.0573991 -0.566103 -9.39795 20.4198 -7.95267 3.99659e-05 24.676 18.2004 -0.271169 180 81.3119 180 -1.7556 8.03291 -0.123299 -21.7936 11.982 -7.37525e-05 -33.1371 -12.8855 -13.2699 0 -70.053 0 22.5538 3.39182 0.67651 13.3708 -1.39728 -24.1845 -7.73104 -8.08599 -33.7726 -0 -0 70.2001 -1.06487e-05 -9.04911 4.6751 -0.743701 -1.98106e-06 -32.7325 -3.73069 1.17857 -20.8144 -0 -0 33.9425 -4.2579e-05 11.4346 -17.998 -3.57618 3.5701e-06 -35.754 
-73.086 80.742 -2.1279 -20.769 87.2343 7.74752 0 -0 0 1.241 -1.59938 -9.49194 20.5027 -8.01095 -2.74354e-05 25.5465 17.6931 -1.35479 180 82.2946 180 -2.5085 8.31318 -0.1823 -21.5889 11.9521 -0.000102118 -32.9634 -13.4594 -12.9556 -1.11975e-06 -72.0433 8.14161e-07 22.2455 2.78318 0.547279 12.8235 -0.622984 -23.8743 -6.98204 -8.19591 -35.9714 -0 -0 69.9504 -2.45905e-07 -8.91962 3.46362 -0.543289 5.82927e-06 -31.8644 -3.12271 1.39797 -18.9018 -0 -0 31.8716 7.72504e-05 10.9896 -15.8137 -3.0293 -5.89814e-06 -38.9661 
-71.389 81.131 -1.9845 -29.4547 87.2948 -0.879307 0 -0 0 2.50405 -2.68784 -9.6073 20.6259 -8.07932 -8.86364e-05 26.3516 17.196 -2.5173 180 83.3306 180 -3.27349 8.58643 -0.2458 -21.3395 11.8943 7.87285e-05 -32.7079 -14.0382 -12.6578 0 -73.9755 0 21.9242 2.1328 0.413204 12.2927 0.137728 -23.6513 -6.1882 -8.36537 -38.0844 -0 -0 69.3685 -2.72024e-06 -8.87883 2.40189 -0.375106 -3.34159e-06 -30.7045 -2.50542 1.45671 -17.0731 -0 -0 29.8948 5.74598e-05 10.5849 -13.3973 -2.47939 1.54813e-05 -42.3217 
-69.682 81.521 -1.8357 -38.3212 87.3898 -9.66432 0 -0 0 3.71977 -3.8056 -9.75374 20.7859 -8.15906 3.65629e-05 27.0945 16.7101 -3.75714 -180 84.4255 -180 -4.0456 8.82371 -0.3123 -21.0394 11.7995 -6.39465e-05 -32.3748 -14.6025 -12.3736 0 -75.8591 0 21.6123 1.45104 0.276995 11.7793 0.873169 -23.5207 -5.36351 -8.57444 -40.1204 -0 -0 68.4734 4.13137e-06 -8.90008 1.50538 -0.235704 -1.69646e-06 -29.2844 -1.89182 1.36036 -15.344 -0 -0 28.0174 3.43202e-06 10.2211 -10.7715 -1.92998 6.64883e-06 -45.7481 
-67.969 81.911 -1.6808 -47.5016 87.4777 -18.7242 0 -0 0 4.88615 -4.92292 -9.93876 20.9806 -8.25549 -5.85313e-05 27.7769 16.2444 -5.06963 180 85.5922 180 -4.82111 8.99582 -0.379504 -20.7065 11.69 1.83489e-05 -31.9477 -15.1875 -12.0898 -1.10177e-06 -77.68 8.87091e-07 21.3341 0.757298 0.142696 11.2778 1.5761 -23.4845 -4.51599 -8.79718 -42.0968 -0 -0 67.2829 6.13123e-07 -8.9538 0.781994 -0.123203 1.23988e-07 -27.7344 -1.2909 1.13575 -13.7202 -0 -0 26.2319 -1.42235e-06 9.89192 -7.95703 -1.38274 2.38965e-05 -49.1809 
-66.254 82.296 -1.5187 -56.9027 87.5203 -27.9537 0 -0 0 6.00423 -6.00517 -10.1725 21.1987 -8.36183 7.84844e-05 28.411 15.7943 -6.44941 180 86.802 180 -5.59078 9.08219 -0.4444 -20.3324 11.5444 -9.12429e-05 -31.4432 -15.7424 -11.8223 1.49149e-06 -79.4569 -1.79464e-06 21.1042 0.0721997 0.0134001 10.7792 2.23867 -23.5367 -3.65157 -9.00627 -44.0226 -0 -0 65.8109 3.30165e-07 -9.00794 0.224996 -0.0356994 -6.19677e-08 -26.2349 -0.711886 0.82871 -12.2016 -0 -0 24.5157 -1.03202e-05 9.5856 -4.9798 -0.839901 2.58014e-06 -52.5283 
-64.537 82.674 -1.3473 -65.8867 87.5233 -36.7209 0 -0 0 7.08768 -7.01872 -10.4595 21.4303 -8.47543 -3.8464e-06 28.9956 15.3657 -7.88884 -180 88.1007 -180 -6.34566 9.06795 -0.503704 -19.9377 11.3795 3.16127e-05 -30.856 -16.2792 -11.5678 1.2838e-06 -81.1962 -1.49788e-06 20.9288 -0.580108 -0.107098 10.2689 2.85889 -23.6652 -2.76679 -9.17083 -45.9075 -0 -0 64.0646 4.6935e-08 -9.03435 -0.183402 0.0291997 -1.8309e-07 -24.9861 -0.156202 0.506295 -10.7848 -0 -0 22.8402 3.59587e-06 9.2831 -1.86119 -0.304207 2.27923e-06 -55.7167 
-62.819 83.043 -1.1641 -73.7483 87.4312 -44.304 0 -0 0 8.15416 -7.93137 -10.8037 21.6613 -8.58877 3.73945e-05 29.5357 14.9562 -9.38058 -180 89.4722 -180 -7.07404 8.94797 -0.554194 -19.5371 11.2005 5.6361e-05 -30.1879 -16.7868 -11.3323 0 -82.9036 0 20.8108 -1.17747 -0.216198 9.7312 3.43601 -23.8535 -1.85463 -9.25973 -47.7469 -0 -0 62.0393 -6.39653e-07 -9.009 -0.466999 0.0740002 -4.37533e-07 -24.2004 0.378995 0.249699 -9.45584 -0 -0 21.1708 3.78547e-06 8.95993 1.37867 0.217297 -3.46778e-06 -58.6696 
